<mxfile host="app.diagrams.net" agent="Mozilla/5.0 (Windows NT 10.0; Win64; x64) AppleWebKit/537.36 (KHTML, like Gecko) Chrome/136.0.0.0 Safari/537.36" version="26.2.14">
  <diagram name="Sivu-1" id="dX2zo3bq4Cqdpeo2wQm-">
    <mxGraphModel dx="733" dy="1138" grid="1" gridSize="10" guides="1" tooltips="1" connect="1" arrows="1" fold="1" page="0" pageScale="1" pageWidth="850" pageHeight="1100" math="0" shadow="0">
      <root>
        <mxCell id="0" />
        <mxCell id="1" parent="0" />
        <mxCell id="pVIOH3iOGMygF9zJK8WP-10" style="edgeStyle=none;curved=1;rounded=0;orthogonalLoop=1;jettySize=auto;html=1;exitX=1;exitY=0.5;exitDx=0;exitDy=0;entryX=0;entryY=0.5;entryDx=0;entryDy=0;fontSize=12;startSize=8;endSize=8;" edge="1" parent="1" source="pVIOH3iOGMygF9zJK8WP-1" target="pVIOH3iOGMygF9zJK8WP-5">
          <mxGeometry relative="1" as="geometry" />
        </mxCell>
        <mxCell id="pVIOH3iOGMygF9zJK8WP-19" value="Fix" style="edgeLabel;html=1;align=center;verticalAlign=middle;resizable=0;points=[];fontSize=12;" vertex="1" connectable="0" parent="pVIOH3iOGMygF9zJK8WP-10">
          <mxGeometry x="-0.2099" y="1" relative="1" as="geometry">
            <mxPoint as="offset" />
          </mxGeometry>
        </mxCell>
        <mxCell id="pVIOH3iOGMygF9zJK8WP-1" value="Publish /&lt;div&gt;Fix?&lt;/div&gt;" style="rhombus;whiteSpace=wrap;html=1;" vertex="1" parent="1">
          <mxGeometry x="60" y="160" width="80" height="80" as="geometry" />
        </mxCell>
        <mxCell id="pVIOH3iOGMygF9zJK8WP-7" style="edgeStyle=none;curved=1;rounded=0;orthogonalLoop=1;jettySize=auto;html=1;exitX=0.5;exitY=1;exitDx=0;exitDy=0;entryX=0.5;entryY=0;entryDx=0;entryDy=0;fontSize=12;startSize=8;endSize=8;" edge="1" parent="1" source="pVIOH3iOGMygF9zJK8WP-2" target="pVIOH3iOGMygF9zJK8WP-3">
          <mxGeometry relative="1" as="geometry" />
        </mxCell>
        <mxCell id="pVIOH3iOGMygF9zJK8WP-2" value="News_planner&lt;div&gt;(journalist)&lt;/div&gt;" style="rounded=0;whiteSpace=wrap;html=1;" vertex="1" parent="1">
          <mxGeometry x="40" y="-80" width="120" height="40" as="geometry" />
        </mxCell>
        <mxCell id="pVIOH3iOGMygF9zJK8WP-8" style="edgeStyle=none;curved=1;rounded=0;orthogonalLoop=1;jettySize=auto;html=1;exitX=0.5;exitY=1;exitDx=0;exitDy=0;entryX=0.5;entryY=0;entryDx=0;entryDy=0;fontSize=12;startSize=8;endSize=8;" edge="1" parent="1" source="pVIOH3iOGMygF9zJK8WP-3" target="pVIOH3iOGMygF9zJK8WP-4">
          <mxGeometry relative="1" as="geometry" />
        </mxCell>
        <mxCell id="pVIOH3iOGMygF9zJK8WP-3" value="News_generator&lt;div&gt;(journalist)&lt;/div&gt;" style="rounded=0;whiteSpace=wrap;html=1;" vertex="1" parent="1">
          <mxGeometry x="40" width="120" height="40" as="geometry" />
        </mxCell>
        <mxCell id="pVIOH3iOGMygF9zJK8WP-9" style="edgeStyle=none;curved=1;rounded=0;orthogonalLoop=1;jettySize=auto;html=1;exitX=0.5;exitY=1;exitDx=0;exitDy=0;entryX=0.5;entryY=0;entryDx=0;entryDy=0;fontSize=12;startSize=8;endSize=8;" edge="1" parent="1" source="pVIOH3iOGMygF9zJK8WP-4" target="pVIOH3iOGMygF9zJK8WP-1">
          <mxGeometry relative="1" as="geometry" />
        </mxCell>
        <mxCell id="pVIOH3iOGMygF9zJK8WP-4" value="News_validation&lt;div&gt;(editor_in_chief)&lt;/div&gt;" style="rounded=0;whiteSpace=wrap;html=1;fillColor=#f8cecc;strokeColor=#b85450;" vertex="1" parent="1">
          <mxGeometry x="40" y="80" width="120" height="40" as="geometry" />
        </mxCell>
        <mxCell id="pVIOH3iOGMygF9zJK8WP-11" style="edgeStyle=none;curved=1;rounded=0;orthogonalLoop=1;jettySize=auto;html=1;exitX=0;exitY=0;exitDx=0;exitDy=0;entryX=1;entryY=1;entryDx=0;entryDy=0;fontSize=12;startSize=8;endSize=8;" edge="1" parent="1" source="pVIOH3iOGMygF9zJK8WP-5" target="pVIOH3iOGMygF9zJK8WP-4">
          <mxGeometry relative="1" as="geometry" />
        </mxCell>
        <mxCell id="pVIOH3iOGMygF9zJK8WP-5" value="News_fixer" style="rounded=0;whiteSpace=wrap;html=1;" vertex="1" parent="1">
          <mxGeometry x="200" y="180" width="120" height="40" as="geometry" />
        </mxCell>
        <mxCell id="pVIOH3iOGMygF9zJK8WP-13" value="" style="shape=cylinder3;whiteSpace=wrap;html=1;boundedLbl=1;backgroundOutline=1;size=15;" vertex="1" parent="1">
          <mxGeometry x="81.25" y="290" width="37.5" height="50" as="geometry" />
        </mxCell>
        <mxCell id="pVIOH3iOGMygF9zJK8WP-14" style="edgeStyle=none;curved=1;rounded=0;orthogonalLoop=1;jettySize=auto;html=1;exitX=0.5;exitY=1;exitDx=0;exitDy=0;entryX=0.5;entryY=0;entryDx=0;entryDy=0;entryPerimeter=0;fontSize=12;startSize=8;endSize=8;" edge="1" parent="1" source="pVIOH3iOGMygF9zJK8WP-1" target="pVIOH3iOGMygF9zJK8WP-13">
          <mxGeometry relative="1" as="geometry" />
        </mxCell>
        <mxCell id="pVIOH3iOGMygF9zJK8WP-20" value="Publish" style="edgeLabel;html=1;align=center;verticalAlign=middle;resizable=0;points=[];fontSize=12;" vertex="1" connectable="0" parent="pVIOH3iOGMygF9zJK8WP-14">
          <mxGeometry x="-0.2702" relative="1" as="geometry">
            <mxPoint y="2" as="offset" />
          </mxGeometry>
        </mxCell>
        <mxCell id="pVIOH3iOGMygF9zJK8WP-18" style="edgeStyle=none;curved=1;rounded=0;orthogonalLoop=1;jettySize=auto;html=1;exitX=0;exitY=0.5;exitDx=0;exitDy=0;entryX=1;entryY=0.5;entryDx=0;entryDy=0;fontSize=12;startSize=8;endSize=8;" edge="1" parent="1" source="pVIOH3iOGMygF9zJK8WP-16" target="pVIOH3iOGMygF9zJK8WP-2">
          <mxGeometry relative="1" as="geometry" />
        </mxCell>
        <mxCell id="pVIOH3iOGMygF9zJK8WP-16" value="News" style="rounded=1;whiteSpace=wrap;html=1;" vertex="1" parent="1">
          <mxGeometry x="200" y="-80" width="120" height="40" as="geometry" />
        </mxCell>
      </root>
    </mxGraphModel>
  </diagram>
</mxfile>
